Coordinates
version=1
nRows=24
nColumns=24
inDegrees=yes

Units are S.I. units (second, meters, Newtons, ...)
Angles are in degrees.

endheader
time	pelvis_tilt	pelvis_list	pelvis_rotation	pelvis_tx	pelvis_ty	pelvis_tz	hip_flexion_r	hip_adduction_r	hip_rotation_r	knee_angle_r	ankle_angle_r	subtalar_angle_r	mtp_angle_r	hip_flexion_l	hip_adduction_l	hip_rotation_l	knee_angle_l	ankle_angle_l	subtalar_angle_l	mtp_angle_l	lumbar_extension	lumbar_bending	lumbar_rotation
      0.01000000	     60.25377495	    -11.32753253	     -7.96391048	      0.42565945	      1.05843614	     -0.33882046	     16.27932078	      0.83601541	     10.21268606	     -8.55537316	      0.04311193	     41.45248661	      0.00000000	      0.66416378	    -25.52609747	     -8.06467539	    -59.30521430	     25.57890012	     27.53700518	      0.00000000	      0.00000000	      0.00000000	      0.00000000
      0.02000000	     60.29434129	    -11.33660303	     -7.91426318	      0.42566178	      1.05834139	     -0.33888732	     16.30524272	      0.83322741	     10.24211329	     -8.56658310	     -0.00932661	     41.46666558	      0.00000000	      0.66024185	    -25.53444110	     -8.01125139	    -59.30444605	     25.55854254	     27.53599328	      0.00000000	      0.00000000	      0.00000000	      0.00000000
      0.03000000	     60.31271021	    -11.33879377	     -7.90074977	      0.42566626	      1.05829292	     -0.33890800	     16.33784197	      0.83038653	     10.19824496	     -8.52300156	     -0.06733088	     41.47113293	      0.00000000	      0.66024659	    -25.53529940	     -7.98225555	    -59.30535751	     25.53596366	     27.54016088	      0.00000000	      0.00000000	      0.00000000	      0.00000000
      0.04000000	     60.31667504	    -11.33878426	     -7.90474850	      0.42565748	      1.05829141	     -0.33890278	     16.37437237	      0.82608509	     10.10867448	     -8.43854050	     -0.13339843	     41.47077141	      0.00000000	      0.66273093	    -25.53043730	     -7.97125342	    -59.30714494	     25.51341047	     27.54590597	      0.00000000	      0.00000000	      0.00000000	      0.00000000
      0.05000000	     60.31487608	    -11.33854003	     -7.91056658	      0.42564713	      1.05831560	     -0.33889882	     16.41134239	      0.81993335	     10.00135258	     -8.32755977	     -0.20843517	     41.46943431	      0.00000000	      0.66612545	    -25.52273497	     -7.97039310	    -59.30907391	     25.49326367	     27.54965845	      0.00000000	      0.00000000	      0.00000000	      0.00000000
      0.06000000	     60.31409808	    -11.33786607	     -7.91082108	      0.42564906	      1.05834072	     -0.33891208	     16.44618726	      0.81236220	      9.89564106	     -8.20050997	     -0.29046814	     41.46782409	      0.00000000	      0.66887229	    -25.51509428	     -7.97274222	    -59.31096827	     25.47719260	     27.54922418	      0.00000000	      0.00000000	      0.00000000	      0.00000000
      0.07000000	     60.31788823	    -11.33701074	     -7.90546059	      0.42565776	      1.05835869	     -0.33893588	     16.47876486	      0.80402898	      9.79938302	     -8.06264705	     -0.37483812	     41.46294200	      0.00000000	      0.66951864	    -25.50912377	     -7.97428938	    -59.31334347	     25.46578190	     27.54435794	      0.00000000	      0.00000000	      0.00000000	      0.00000000
      0.08000000	     60.32648502	    -11.33687963	     -7.89790112	      0.42566317	      1.05837117	     -0.33895476	     16.51112564	      0.79643401	      9.71094340	     -7.91556857	     -0.45550687	     41.44898700	      0.00000000	      0.66716162	    -25.50483574	     -7.97447609	    -59.31697823	     25.45862964	     27.53656965	      0.00000000	      0.00000000	      0.00000000	      0.00000000
      0.09000000	     60.33789927	    -11.33764950	     -7.89153923	      0.42566537	      1.05837780	     -0.33896258	     16.54634964	      0.79254822	      9.62397361	     -7.75986306	     -0.52674937	     41.41918849	      0.00000000	      0.66185836	    -25.50143238	     -7.97506148	    -59.32226025	     25.45472964	     27.52839237	      0.00000000	      0.00000000	      0.00000000	      0.00000000
      0.10000000	     60.34964930	    -11.33871611	     -7.88811595	      0.42567000	      1.05837845	     -0.33896168	     16.58789654	      0.79571818	      9.53239534	     -7.59705596	     -0.58451116	     41.36787342	      0.00000000	      0.65452846	    -25.49831946	     -7.97824806	    -59.32881193	     25.45290637	     27.52245664	      0.00000000	      0.00000000	      0.00000000	      0.00000000
      0.11000000	     60.35978856	    -11.33953041	     -7.88781018	      0.42568123	      1.05837428	     -0.33895587	     16.63889102	      0.80803434	      9.43361698	     -7.43045851	     -0.62702871	     41.29211574	      0.00000000	      0.64652971	    -25.49554788	     -7.98521604	    -59.33562232	     25.45213970	     27.52069743	      0.00000000	      0.00000000	      0.00000000	      0.00000000
      0.12000000	     60.36696473	    -11.33984521	     -7.89007352	      0.42569788	      1.05836416	     -0.33894694	     16.70109402	      0.82978643	      9.32930686	     -7.26512082	     -0.65470951	     41.19253284	      0.00000000	      0.63929907	    -25.49355336	     -7.99568475	    -59.34154382	     25.45172437	     27.52390496	      0.00000000	      0.00000000	      0.00000000	      0.00000000
      0.13000000	     60.37048251	    -11.33958208	     -7.89425980	      0.42571478	      1.05835050	     -0.33893305	     16.77466980	      0.85984985	      9.22432983	     -7.10694694	     -0.66954429	     41.07312161	      0.00000000	      0.63409169	    -25.49261696	     -8.00838892	    -59.34582520	     25.45128088	     27.53167798	      0.00000000	      0.00000000	      0.00000000	      0.00000000
      0.14000000	     60.37045076	    -11.33873514	     -7.89979476	      0.42572952	      1.05834246	     -0.33891179	     16.85872916	      0.89642872	      9.12488389	     -6.96144065	     -0.67438276	     40.94033022	      0.00000000	      0.63173062	    -25.49251834	     -8.02187462	    -59.34839196	     25.45067129	     27.54270415	      0.00000000	      0.00000000	      0.00000000	      0.00000000
      0.15000000	     60.36745262	    -11.33729135	     -7.90615242	      0.42574435	      1.05834065	     -0.33888318	     16.95158424	      0.93776368	      9.03669495	     -6.83277785	     -0.67230192	     40.80171019	      0.00000000	      0.63244198	    -25.49260568	     -8.03503463	    -59.34975271	     25.44989229	     27.55521314	      0.00000000	      0.00000000	      0.00000000	      0.00000000
      0.16000000	     60.36212857	    -11.33515704	     -7.91288216	      0.42576225	      1.05832874	     -0.33885095	     17.05070885	      0.98246686	      8.96375147	     -6.72331820	     -0.66615991	     40.66451537	      0.00000000	      0.63587149	    -25.49228436	     -8.04714452	    -59.35062678	     25.44899537	     27.56743575	      0.00000000	      0.00000000	      0.00000000	      0.00000000
      0.17000000	     60.35531383	    -11.33243588	     -7.91963681	      0.42578172	      1.05829454	     -0.33882289	     17.15308237	      1.02927235	      8.90765613	     -6.63328740	     -0.65833433	     40.53455725	      0.00000000	      0.64124683	    -25.49151665	     -8.05762124	    -59.35155385	     25.44804416	     27.57795139	      0.00000000	      0.00000000	      0.00000000	      0.00000000
      0.18000000	     60.34828121	    -11.32991661	     -7.92606027	      0.42579406	      1.05825261	     -0.33880400	     17.25555691	      1.07660390	      8.86739918	     -6.56070081	     -0.65059853	     40.41552001	      0.00000000	      0.64764181	    -25.49074581	     -8.06592713	    -59.35270325	     25.44709926	     27.58587785	      0.00000000	      0.00000000	      0.00000000	      0.00000000
      0.19000000	     60.34218693	    -11.32861382	     -7.93169309	      0.42579042	      1.05822845	     -0.33879136	     17.35424752	      1.12284654	      8.83940991	     -6.50188943	     -0.64409559	     40.30882950	      0.00000000	      0.65428932	    -25.49035816	     -8.07168866	    -59.35388135	     25.44621444	     27.59090612	      0.00000000	      0.00000000	      0.00000000	      0.00000000
      0.20000000	     60.33732532	    -11.32856850	     -7.93606116	      0.42577381	      1.05822419	     -0.33878046	     17.44377786	      1.16699467	      8.81813475	     -6.45235232	     -0.63940646	     40.21405387	      0.00000000	      0.66072504	    -25.49034094	     -8.07479211	    -59.35463766	     25.44542176	     27.59321470	      0.00000000	      0.00000000	      0.00000000	      0.00000000
      0.21000000	     60.33363696	    -11.32877380	     -7.93878651	      0.42575686	      1.05822072	     -0.33877077	     17.51831857	      1.20835160	      8.79743233	     -6.40717956	     -0.63672042	     40.12969365	      0.00000000	      0.66656638	    -25.49042646	     -8.07533625	    -59.35444216	     25.44468426	     27.59331789	      0.00000000	      0.00000000	      0.00000000	      0.00000000
      0.22000000	     60.33186299	    -11.32843911	     -7.93956236	      0.42574558	      1.05820972	     -0.33876169	     17.57369941	      1.24547723	      8.77235997	     -6.36128379	     -0.63605310	     40.05411308	      0.00000000	      0.67105223	    -25.49043060	     -8.07352342	    -59.35291353	     25.44383194	     27.59189821	      0.00000000	      0.00000000	      0.00000000	      0.00000000
      0.23000000	     60.33366361	    -11.32783517	     -7.93807863	      0.42572979	      1.05820334	     -0.33875018	     17.60816712	      1.27598380	      8.74038368	     -6.31034757	     -0.63736751	     39.98631460	      0.00000000	      0.67270572	    -25.49041718	     -8.06958574	    -59.35000702	     25.44254486	     27.58965240	      0.00000000	      0.00000000	      0.00000000	      0.00000000
      0.24000000	     60.34080940	    -11.32801310	     -7.93408529	      0.42569414	      1.05821576	     -0.33873676	     17.62150609	      1.29754391	      8.70141127	     -6.25239405	     -0.64049307	     39.92633779	      0.00000000	      0.66941159	    -25.49061994	     -8.06376801	    -59.34605086	     25.44043400	     27.58716440	      0.00000000	      0.00000000	      0.00000000	      0.00000000
